<?xml version="1.0" encoding="UTF-8" standalone="no"?>
<!-- Created with Inkscape (http://www.inkscape.org/) -->

<svg
   width="48"
   height="48"
   viewBox="0 0 12.7 12.7"
   version="1.1"
   id="svg5"
   xmlns="http://www.w3.org/2000/svg"
   xmlns:svg="http://www.w3.org/2000/svg">
  <defs
     id="defs2" />
  <g
     id="layer1"
     transform="translate(-7.576847,-17.006842)">
    <g
       aria-label="Редполитикаβ"
       id="text800"
       style="font-size:10.5833px;line-height:1.25;font-family:C059;-inkscape-font-specification:'C059, Normal';text-align:center;letter-spacing:0px;word-spacing:0px;text-anchor:middle;fill:#ed4100;stroke-width:0.264583">
      <path
         d="m 11.06309,23.833355 h 1.195913 c 0.952497,0 1.449912,-0.07408 1.883827,-0.275165 0.740831,-0.359833 1.164163,-1.037164 1.164163,-1.883828 0,-1.354662 -0.99483,-2.08491 -2.868074,-2.08491 H 8.734764 v 0.497415 h 0.1904994 c 0.6032481,0.01058 0.8043308,0.04233 0.8889972,0.148167 0.0635,0.09525 0.0635,0.116416 0.0635,0.656164 v 5.037651 c 0,0.539748 0,0.560915 -0.0635,0.656164 -0.084666,0.105833 -0.2857491,0.148167 -0.8889972,0.148167 H 8.734764 v 0.497415 h 3.555989 V 26.73318 h -0.275166 c -0.603248,0 -0.804331,-0.04233 -0.888997,-0.148167 -0.0635,-0.09525 -0.0635,-0.116416 -0.0635,-0.656164 z m 0,-0.497415 v -2.709324 c 0,-0.486832 0.05292,-0.539749 0.645581,-0.539749 h 0.677331 c 1.100664,0 1.619245,0.518582 1.619245,1.640412 0,1.09008 -0.539748,1.608661 -1.661578,1.608661 z"
         style="fill:#000000"
         id="path2356" />
      <path
         d="m 14.984894,22.298777 -0.770305,0.380999 h -0.220747 c 0.698498,0.02117 -1.399785,1.366576 -1.399785,0.985574 v -0.06483 2.328326 0.253999 0.243416 c -0.01058,0.158749 -0.02117,0.222249 -0.0635,0.275166 -0.391622,0 -0.275166,0.137583 -0.730248,0.148166 h -0.04233 v 0.380999 h 2.677575 v -0.380999 h -0.04233 c -0.709081,-0.02117 -0.80433,-0.07408 -0.80433,-0.455082 V 25.928849 23.674606 23.33594 23.134858 c 0.01058,-0.15875 0.04233,-0.232833 0.126999,-0.285749 0.08467,-0.0635 0.275166,-0.08467 0.656165,-0.09525 h 0.761997 c 0.677332,0.02117 0.772581,0.07408 0.783165,0.412749 v 0.507998 2.254243 0.497415 c -0.01058,0.158749 -0.02117,0.222249 -0.0635,0.275166 -0.07408,0.09525 -0.285749,0.137583 -0.740831,0.148166 h -0.04233 v 0.380999 h 2.677574 v -0.380999 h -0.04233 c -0.698498,-0.02117 -0.793747,-0.07408 -0.793747,-0.455082 v -0.465665 -2.328326 -0.507999 c 0.01058,-0.148166 0.02117,-0.211666 0.0635,-0.264582 0.07408,-0.09525 0.275166,-0.137583 0.730248,-0.148166 h 0.04233 v -0.380999 z"
         style="fill:#000000"
         id="path2362" />
      <path
         d="m 16.945667,24.386862 h 0.64664 v -1.843611 c 0.227012,0.40587 0.488419,0.557211 0.935564,0.557211 0.80486,0 1.36207,-0.64664 1.36207,-1.582203 0,-0.715431 -0.364594,-1.155697 -0.997476,-1.217609 0.1651,-0.05503 0.275166,-0.09631 0.364595,-0.151341 0.309562,-0.178858 0.495299,-0.557211 0.495299,-1.004355 0,-0.770464 -0.502178,-1.217609 -1.348313,-1.217609 -0.969959,0 -1.458379,0.522815 -1.458379,1.561566 z M 18.108243,20.2181 v 0.282045 l 0.15822,-0.0069 c 0.626002,0 0.901168,0.316441 0.901168,1.031872 0,0.749827 -0.288924,1.20385 -0.756706,1.20385 -0.302682,0 -0.543452,-0.178858 -0.694793,-0.522815 -0.08943,-0.206374 -0.123825,-0.447144 -0.123825,-0.825497 v -2.001831 c 0,-0.309562 0.02752,-0.543453 0.06879,-0.674156 0.110066,-0.302683 0.378352,-0.502178 0.687914,-0.502178 0.440265,0 0.681035,0.350836 0.681035,0.983718 0,0.694793 -0.247649,1.031871 -0.763585,1.031871 z"
         style="font-size:65%;baseline-shift:super"
         id="path2378" />
    </g>
  </g>
</svg>
